<svg xmlns="http://www.w3.org/2000/svg" width="9000" height="914" viewBox="0 0 9000 914">
	<defs>
		<style>.a{fill:#0fe;}.b{fill:rgba(8,5,26,0.9);}</style>
	</defs>
	<g transform="translate(0 -1450.936)">
		<path class="a" d="M437.117,2365.222l20.9-20.893H687.846l20.9,20.893Z" transform="translate(-0.084 -0.286)"/>
		<g transform="translate(0 1450.936)">
			<path class="b" d="M419.225,2362.194H47.415L1,2317.5V2011.954l27.543-25.818.316-.3V1689.082l-.235-.279L1,1656V1496.592l41.226-44.655H414L446.794,1483l.289.274h244.6l.3-.317,25.821-27.538H9123.553L9170,1505.3v169.869l-27.64,34.545-.219.274v291.468l.25.283,25.867,29.313v286.476l-41.214,42.926H726.449l-31.057-27.6-.284-.252H450.566l-.289.273Z" transform="translate(0 -1450.936)"/>
			<path class="a" d="M42.664,1452.935,2,1496.982v158.656l27.859,33.078v297.557l-.632.593L2,2012.388v304.69l45.818,44.116h371.01l31.341-29.6H695.488l31.341,27.855H9126.618l40.641-42.328v-285.7l-26.118-29.6v-292.2l.439-.548L9169,1674.817V1505.693l-45.882-49.274H718.228l-26.117,27.854H446.684l-.579-.548-32.5-30.789H42.664m-.876-2H414.4l33.083,31.337H691.245l26.117-27.854H9123.988L9171,1504.906v170.613l-27.86,34.819v290.738l26.118,29.6v287.256l-41.788,43.524H726.068L694.727,2333.6H450.964l-31.341,29.6H47.012L0,2317.928V2011.521l27.859-26.114V1689.447L0,1656.368V1496.2Z" transform="translate(0 -1450.936)"/>
		</g>
		<path class="a" d="M0,1672.108l19.153,22.633v280.292L0,1999.4Z" transform="translate(0 -0.071)"/>
		<path class="a" d="M431.893,1452.678H703.516l-20.9,19.151H454.529Z" transform="translate(-0.083 -0.001)"/>
	</g>
</svg>