<svg xmlns="http://www.w3.org/2000/svg" width="591.661" height="863.898" viewBox="0 0 591.661 863.898"><defs><style>.a,.b,.c,.d,.e,.f,.g,.h{fill:aqua;}.b{opacity:0.82;}.c{opacity:0.72;}.d{opacity:0.62;}.e{opacity:0.53;}.f{opacity:0.41;}.g{opacity:0.32;}.h{opacity:0.24;}.i,.j,.k,.l,.m,.n{fill:#00fff8;}.j{opacity:0.64;}.k{opacity:0.4;}.l{opacity:0.34;}.m{opacity:0.22;}.n{opacity:0.15;}.o,.p{fill:none;stroke-miterlimit:10;}.o{stroke:#00fff8;stroke-width:2px;}.p{stroke:aqua;stroke-width:0.684px;}</style></defs><g transform="translate(-1181.799 -756.127)"><g transform="translate(1181.799 1182.717)"><g transform="translate(252.617 197.511)"><g transform="translate(0 153.601)"><rect class="a" width="18.969" height="10.659" transform="translate(0 18.97) rotate(-90)"/><rect class="b" width="18.969" height="10.659" transform="translate(15.693 18.97) rotate(-90)"/><rect class="c" width="18.969" height="10.659" transform="translate(31.385 18.97) rotate(-90)"/><rect class="d" width="18.969" height="10.659" transform="translate(47.078 18.969) rotate(-90)"/><rect class="e" width="18.969" height="10.659" transform="translate(62.77 18.97) rotate(-90)"/></g><g transform="translate(0 115.2)"><rect class="a" width="18.97" height="10.659" transform="translate(0 18.97) rotate(-90)"/><rect class="b" width="18.97" height="10.659" transform="translate(15.693 18.97) rotate(-90)"/><rect class="c" width="18.97" height="10.659" transform="translate(31.385 18.97) rotate(-90)"/><rect class="d" width="18.97" height="10.659" transform="translate(47.078 18.97) rotate(-90)"/><rect class="e" width="18.97" height="10.659" transform="translate(62.77 18.97) rotate(-90)"/><rect class="f" width="18.97" height="10.659" transform="translate(78.462 18.97) rotate(-90)"/><rect class="g" width="18.97" height="10.659" transform="translate(94.154 18.97) rotate(-90)"/></g><g transform="translate(0 76.8)"><rect class="a" width="18.97" height="10.659" transform="translate(0 18.97) rotate(-90)"/><rect class="b" width="18.97" height="10.659" transform="translate(15.693 18.97) rotate(-90)"/><rect class="c" width="18.97" height="10.659" transform="translate(31.385 18.97) rotate(-90)"/><rect class="d" width="18.97" height="10.659" transform="translate(47.078 18.97) rotate(-90)"/><rect class="e" width="18.97" height="10.659" transform="translate(62.77 18.97) rotate(-90)"/><rect class="f" width="18.97" height="10.659" transform="translate(78.462 18.97) rotate(-90)"/><rect class="g" width="18.97" height="10.659" transform="translate(94.154 18.97) rotate(-90)"/><rect class="h" width="18.97" height="10.658" transform="translate(109.847 18.97) rotate(-90)"/></g><g transform="translate(0 38.4)"><rect class="a" width="18.97" height="10.659" transform="translate(0 18.97) rotate(-90)"/><rect class="b" width="18.97" height="10.659" transform="translate(15.693 18.97) rotate(-90)"/><rect class="c" width="18.97" height="10.659" transform="translate(31.385 18.97) rotate(-90)"/><rect class="d" width="18.97" height="10.659" transform="translate(47.078 18.97) rotate(-90)"/><rect class="e" width="18.97" height="10.659" transform="translate(62.77 18.97) rotate(-90)"/></g><rect class="a" width="18.97" height="10.659" transform="translate(0 18.97) rotate(-90)"/><rect class="b" width="18.97" height="10.659" transform="translate(15.693 18.97) rotate(-90)"/><rect class="c" width="18.97" height="10.659" transform="translate(31.385 18.97) rotate(-90)"/><rect class="d" width="18.97" height="10.659" transform="translate(47.078 18.97) rotate(-90)"/><rect class="e" width="18.97" height="10.659" transform="translate(62.77 18.97) rotate(-90)"/><rect class="f" width="18.97" height="10.659" transform="translate(78.462 18.97) rotate(-90)"/><rect class="g" width="18.97" height="10.659" transform="translate(94.154 18.97) rotate(-90)"/><rect class="h" width="18.97" height="10.658" transform="translate(109.847 18.97) rotate(-90)"/></g><g transform="translate(181.767 322.196)"><g transform="translate(0 16.125)"><path class="a" d="M1225.652,906.951v8.761l18.612-18.611,18.611,18.611v-8.761l-14.231-14.231.021-.021-4.4-4.38-4.4,4.38.021.021Z" transform="translate(-1225.652 -888.318)"/></g><path class="a" d="M1225.652,903.039v8.782l18.612-18.611,18.611,18.611v-8.782l-18.611-18.611Z" transform="translate(-1225.652 -884.428)"/></g><g transform="translate(5.178)"><g transform="translate(101.916 84.578)"><rect class="i" width="22.527" height="31.598" transform="translate(0 244.698)"/><rect class="j" width="22.527" height="31.599" transform="translate(0 195.758)"/><rect class="k" width="22.527" height="31.599" transform="translate(0 146.819)"/><rect class="l" width="22.527" height="31.599" transform="translate(0 97.879)"/><rect class="m" width="22.527" height="31.599" transform="translate(0 48.939)"/><rect class="n" width="22.527" height="31.599"/></g><path class="o" d="M1185.41,851.506v345.082h370.825v38.989h-332.7V809.055" transform="translate(-1175.622 -799.268)"/><circle class="i" cx="9.788" cy="9.788" r="9.788" transform="translate(38.299)"/><circle class="i" cx="9.788" cy="9.788" r="9.788" transform="translate(0 42.314)"/></g><path class="a" d="M1229.64,923.314l14.965-14.966h170.054v14.966Z" transform="translate(-1031.345 -487.006)"/><path class="a" d="M1196.765,1037.029l-14.966-14.966V852.01h14.966Z" transform="translate(-1181.799 -664.183)"/></g><g transform="translate(1437.788 756.127)"><path class="p" d="M1559.479,688.612,1452.837,795.254h-216.72" transform="translate(-1229.963 -682.457)"/><path class="a" d="M1312.648,693.282a6.155,6.155,0,1,1,6.155,6.155A6.156,6.156,0,0,1,1312.648,693.282Z" transform="translate(-1312.648 -580.484)"/><path class="a" d="M1234.633,719.011a6.155,6.155,0,1,1,6.155,6.155A6.156,6.156,0,0,1,1234.633,719.011Z" transform="translate(-911.271 -712.856)"/></g></g></svg>