<svg xmlns="http://www.w3.org/2000/svg" width="554.661" height="932.898" viewBox="0 0 554.661 932.898"><defs><style>.a,.b,.c,.d,.e,.f,.g,.h{fill:aqua;}.b{opacity:0.82;}.c{opacity:0.72;}.d{opacity:0.62;}.e{opacity:0.53;}.f{opacity:0.41;}.g{opacity:0.32;}.h{opacity:0.24;}.i,.j,.k,.l,.m,.n{fill:#00fff8;}.j{opacity:0.64;}.k{opacity:0.4;}.l{opacity:0.34;}.m{opacity:0.22;}.n{opacity:0.15;}.o,.p{fill:none;stroke-miterlimit:10;}.o{stroke:#00fff8;stroke-width:2px;}.p{stroke:aqua;stroke-width:0.684px;}</style></defs><g transform="translate(0 1)"><g transform="translate(168.87 0)"><g transform="translate(12.668 66.227)"><g transform="translate(47.077 0)"><rect class="a" width="18.969" height="10.659" transform="translate(73.428) rotate(90)"/><rect class="b" width="18.969" height="10.659" transform="translate(57.736) rotate(90)"/><rect class="c" width="18.969" height="10.659" transform="translate(42.043) rotate(90)"/><rect class="d" width="18.969" height="10.659" transform="translate(26.351 0) rotate(90)"/><rect class="e" width="18.969" height="10.659" transform="translate(10.659) rotate(90)"/></g><g transform="translate(15.692 38.4)"><rect class="a" width="18.97" height="10.659" transform="translate(104.813 0) rotate(90)"/><rect class="b" width="18.97" height="10.659" transform="translate(89.12 0) rotate(90)"/><rect class="c" width="18.97" height="10.659" transform="translate(73.428 0.001) rotate(90)"/><rect class="d" width="18.97" height="10.659" transform="translate(57.735 0) rotate(90)"/><rect class="e" width="18.97" height="10.659" transform="translate(42.043 0) rotate(90)"/><rect class="f" width="18.97" height="10.659" transform="translate(26.351 0) rotate(90)"/><rect class="g" width="18.97" height="10.659" transform="translate(10.659 0) rotate(90)"/></g><g transform="translate(0 76.8)"><rect class="a" width="18.97" height="10.659" transform="translate(120.505 0) rotate(90)"/><rect class="b" width="18.97" height="10.659" transform="translate(104.813 0) rotate(90)"/><rect class="c" width="18.97" height="10.659" transform="translate(89.12 0) rotate(90)"/><rect class="d" width="18.97" height="10.659" transform="translate(73.428 0) rotate(90)"/><rect class="e" width="18.97" height="10.659" transform="translate(57.736 0) rotate(90)"/><rect class="f" width="18.97" height="10.659" transform="translate(42.043 0) rotate(90)"/><rect class="g" width="18.97" height="10.659" transform="translate(26.351 0) rotate(90)"/><rect class="h" width="18.97" height="10.658" transform="translate(10.658 0) rotate(90)"/></g><g transform="translate(47.077 115.2)"><rect class="a" width="18.97" height="10.659" transform="translate(73.428 0) rotate(90)"/><rect class="b" width="18.97" height="10.659" transform="translate(57.736 0) rotate(90)"/><rect class="c" width="18.97" height="10.659" transform="translate(42.043 0) rotate(90)"/><rect class="d" width="18.97" height="10.659" transform="translate(26.351 0) rotate(90)"/><rect class="e" width="18.97" height="10.659" transform="translate(10.659 0) rotate(90)"/></g><g transform="translate(0 153.6)"><rect class="a" width="18.97" height="10.659" transform="translate(120.505 0) rotate(90)"/><rect class="b" width="18.97" height="10.659" transform="translate(104.813 0) rotate(90)"/><rect class="c" width="18.97" height="10.659" transform="translate(89.12 0) rotate(90)"/><rect class="d" width="18.97" height="10.659" transform="translate(73.428 0) rotate(90)"/><rect class="e" width="18.97" height="10.659" transform="translate(57.736 0) rotate(90)"/><rect class="f" width="18.97" height="10.659" transform="translate(42.043 0) rotate(90)"/><rect class="g" width="18.97" height="10.659" transform="translate(26.351 0) rotate(90)"/><rect class="h" width="18.97" height="10.658" transform="translate(10.658 0) rotate(90)"/></g></g><g transform="translate(166.801 70.594)"><g transform="translate(0 0)"><path class="a" d="M1262.875,897.079v-8.761l-18.612,18.611-18.611-18.611v8.761l14.231,14.231-.021.021,4.4,4.38,4.4-4.38-.021-.021Z" transform="translate(-1225.652 -888.318)"/></g><g transform="translate(0 16.125)"><path class="a" d="M1262.875,893.209v-8.782l-18.612,18.611-18.611-18.611v8.782l18.611,18.611Z" transform="translate(-1225.652 -884.428)"/></g></g><g transform="translate(0)"><g transform="translate(256.17 75.435)"><rect class="i" width="22.527" height="31.598" transform="translate(0 0)"/><rect class="j" width="22.527" height="31.599" transform="translate(0 48.939)"/><rect class="k" width="22.527" height="31.599" transform="translate(0 97.879)"/><rect class="l" width="22.527" height="31.599" transform="translate(0 146.818)"/><rect class="m" width="22.527" height="31.599" transform="translate(0 195.758)"/><rect class="n" width="22.527" height="31.599" transform="translate(0 244.697)"/></g><path class="o" d="M1556.234,1193.125V848.044H1185.41V809.055h332.7v426.521" transform="translate(-1185.41 -809.055)"/><ellipse class="i" cx="9.788" cy="9.788" rx="9.788" ry="9.788" transform="translate(322.739 416.733)"/><ellipse class="i" cx="9.788" cy="9.788" rx="9.788" ry="9.788" transform="translate(361.037 374.419)"/></g><path class="a" d="M1414.66,908.348l-14.965,14.966H1229.64V908.348Z" transform="translate(-1227.164 -908.348)"/><path class="a" d="M1181.8,852.01l14.966,14.966v170.054H1181.8Z" transform="translate(-810.974 -788.547)"/></g><g transform="translate(0 812.945)"><g transform="translate(0 0)"><path class="p" d="M1559.48,688.612,1452.837,795.254h-216.72" transform="translate(-1229.963 -682.457)"/><path class="a" d="M1312.648,693.282a6.155,6.155,0,1,1,6.155,6.155A6.156,6.156,0,0,1,1312.648,693.282Z" transform="translate(-1312.648 -580.484)"/><path class="a" d="M1234.633,719.011a6.155,6.155,0,1,1,6.155,6.155A6.156,6.156,0,0,1,1234.633,719.011Z" transform="translate(-911.271 -712.856)"/></g></g></g></svg>