<svg xmlns="http://www.w3.org/2000/svg"
	xmlns:xlink="http://www.w3.org/1999/xlink" width="442.808" height="140.845" viewBox="0 0 442.808 140.845">
	<defs>
		<style>.a,.b,.c,.d,.e,.f,.g,.h,.i,.j,.k,.l,.m,.n,.o,.p,.q,.r,.s,.t,.v,.w,.x,.y{fill-rule:evenodd;}.a{fill:url(#a);}.b{fill:url(#b);}.c{fill:url(#c);}.d{fill:url(#d);}.e{fill:url(#e);}.f{fill:url(#f);}.g{fill:url(#g);}.h{fill:url(#h);}.i{fill:url(#i);}.j{fill:url(#j);}.k{fill:url(#k);}.l{fill:url(#l);}.m{fill:url(#m);}.n{fill:url(#n);}.o{fill:url(#o);}.p{fill:url(#p);}.q{fill:url(#q);}.r{fill:url(#r);}.s{fill:url(#s);}.t{fill:url(#t);}.u{fill:url(#u);}.v{fill:url(#v);}.w{fill:url(#w);}.x{fill:url(#x);}.y{fill:url(#y);}.z{fill:#ccc;}.aa{fill:#00c8c8;}</style>
		<linearGradient id="a" x1="-3.217" y1="-3.924" x2="2.123" y2="2.432" gradientUnits="objectBoundingBox">
			<stop offset="0" stop-color="#74b242"/>
			<stop offset="0.151" stop-color="#6eb14f"/>
			<stop offset="0.431" stop-color="#60b171"/>
			<stop offset="0.807" stop-color="#4ab0a8"/>
			<stop offset="1" stop-color="#3eb0c8"/>
		</linearGradient>
		<linearGradient id="b" x1="0.268" y1="0.254" x2="0.752" y2="0.781" xlink:href="#a"/>
		<linearGradient id="c" x1="-3.057" y1="-3.734" x2="1.025" y2="1.125" xlink:href="#a"/>
		<linearGradient id="d" x1="-1.394" y1="-1.755" x2="2.688" y2="3.104" xlink:href="#a"/>
		<linearGradient id="e" x1="-0.01" y1="-0.107" x2="4.073" y2="4.751" xlink:href="#a"/>
		<linearGradient id="f" x1="-1.456" y1="-1.827" x2="2.627" y2="3.031" xlink:href="#a"/>
		<linearGradient id="g" x1="-0.637" y1="-0.852" x2="5.037" y2="5.899" xlink:href="#a"/>
		<linearGradient id="h" x1="1.088" y1="1.199" x2="6.429" y2="7.555" xlink:href="#a"/>
		<linearGradient id="i" x1="-0.702" y1="-0.931" x2="4.639" y2="5.425" xlink:href="#a"/>
		<linearGradient id="j" x1="-5.516" y1="-6.659" x2="-0.175" y2="-0.303" xlink:href="#a"/>
		<linearGradient id="k" x1="-5.037" y1="-6.09" x2="0.303" y2="0.266" xlink:href="#a"/>
		<linearGradient id="l" x1="-1.114" y1="-1.42" x2="4.228" y2="4.935" xlink:href="#a"/>
		<linearGradient id="m" x1="0.345" y1="0.315" x2="5.685" y2="6.671" xlink:href="#a"/>
		<linearGradient id="n" x1="-3.786" y1="-4.601" x2="1.555" y2="1.755" xlink:href="#a"/>
		<linearGradient id="o" x1="-3.638" y1="-4.424" x2="2.036" y2="2.328" xlink:href="#a"/>
		<linearGradient id="p" x1="-0.864" y1="-1.123" x2="4.81" y2="5.629" xlink:href="#a"/>
		<linearGradient id="q" x1="-1.161" y1="-1.477" x2="2.315" y2="2.66" xlink:href="#a"/>
		<linearGradient id="r" x1="-3.996" y1="-4.793" x2="0.026" y2="-0.058" xlink:href="#a"/>
		<linearGradient id="s" x1="-1.328" y1="-1.675" x2="2.148" y2="2.462" xlink:href="#a"/>
		<linearGradient id="t" x1="0.947" y1="1.027" x2="4.841" y2="5.609" xlink:href="#a"/>
		<linearGradient id="u" x1="0.422" y1="0.407" x2="3.242" y2="3.763" xlink:href="#a"/>
		<linearGradient id="v" x1="-2.232" y1="-2.751" x2="0.588" y2="0.604" xlink:href="#a"/>
		<linearGradient id="w" x1="-2.485" y1="-3.052" x2="0.335" y2="0.304" xlink:href="#a"/>
		<linearGradient id="x" x1="0.53" y1="0.536" x2="3.35" y2="3.892" xlink:href="#a"/>
		<linearGradient id="y" x1="-0.444" y1="-0.623" x2="1.431" y2="1.608" xlink:href="#a"/>
	</defs>
	<g transform="translate(-220.889 -673.71)">
		<g transform="translate(220.889 673.71)">
			<path class="a" d="M285.476,817.705a4.985,4.985,0,1,0,4.986,4.986A4.985,4.985,0,0,0,285.476,817.705Z" transform="translate(-235.752 -709.618)"/>
			<g transform="translate(10.451 10.208)">
				<path class="b" d="M304.073,687.437l32.815,19.992-.13.213.208.138-.351.526-.133.2-.2-.125-.627-.381,15.479,24.383.141.222-.23.129-.562.316-.14.079,2.351.478.224.046-.026.226,0,.038h.287v26.891l-.254,0a.919.919,0,0,0-.174.01l-.02,0-.064.15-.1.243-.236-.117-26.436-13.08-6.274,21.36,15.268,4.152,12.9-10.32.125-.1.141.071.07.035.08.039.038.08a.8.8,0,0,0,.117.163h0a.532.532,0,0,1,.172.588l-.023.065-.056.045-12.909,10.327-.464,17.855,15.07-28.774.1-.188.2.067.106.035.031.011.024.015.492.316.192.124-.107.2L334.942,795.07l-.093.179,0,.014-.017.008-.008.016-.012-.007-.167.077-21.2,9.653.009.072-.223.026-.146.067-.014-.047-22.741,2.654-.248.029-.02-.182a.519.519,0,0,1-.227-.036l-.062-.022-.043-.048L274.426,790.39l-19.25.3,33.1,15.985.233.113-.121.228-.316.6-.113.212-.217-.105L252.5,790.681l-.132-.064-.041.018-.029-.052-.025-.012.008-.016-.065-.116-13-22.908-.065-.116.037-.075-.02-.02-.014-.077-4.287-23.33-.02-.113-.036-.016.024-.05-.015-.082.057-.007.045-.1,17.322-36.3.05-.106-.014-.028.038-.022.029-.061.046.02.1-.054,18.621-10.4,4.527-2.527h0c.089-.053.224-.139.379-.239a7.855,7.855,0,0,1,1.551-.85l-.006-.051.223-.049,22.838-4.954.242-.053.053.243.024.107c.551.108,1.354.963,2.021,1.673a9.885,9.885,0,0,0,.815.816l.014.01.012.012L317.683,704.8l.167.17-.163.175-.456.492-.175.188-.183-.18-2.424-2.389,0,0-13.461-13.668-9.2,27.61,12.495,4.728h0l9.711,3.695.843-18.65.249.01.013-.248.668.034.247.013-.011.246-.783,17.272,19.343-16.663.163-.14.162.139.128.109.119-.053-31.668-19.259-.215-.131.134-.214.351-.561.131-.209.211.128Zm11.01,38.525,35.153,7.148-.091-.142-15.292-24.016-.026.026-.014.013-19.73,16.971ZM278.2,693.987l.105.842-.36-.721-20.157,11.266,30.441,12.295.167.068-7.969-16.77h0l-2-4.18,0-.008c-.038-.083-.1-.191-.164-.3v0a1.78,1.78,0,0,1-.314-.812l0-.169.157-.065.6-.246.219-.09.1.213,10.413,21.836a.71.71,0,0,0,.2-.12.459.459,0,0,1,.535-.111.728.728,0,0,1,.072-.091l.108-.119.153.048c.042.013.091.035.14.057.023.01-.045.167-.02.14l9.239-27.649-21.655,4.69Zm16.786,53.94,18.586-21.241-22.189-8.321-.285.858.941,6.9,1.792,13.246,1.157,8.556ZM268.206,728.97l-15.3-20.461L236.31,743.46l23.113,6.5,8.783-20.991Zm-9.727,21.964-22.276-6.3,3.927,21.464,18.348-15.167Zm17.154,39.03,14.041,15.723-.034-23.281-14.007,7.557Zm58.264,2.744.464-18.085-13.273-3.65,12.81,21.735Zm-14.183-21.732-.124-.211.194-.119-1.086-.331-.146-.044-.027.016-.036-.036-.018-.005,0-.01-.089-.087-20.905-20.625-.179-.176.177-.178.163-.163-.023-.233-.025-.256.257-.018,26.706-1.836-10.088-19.191L295,749.687l-.153.176-.185-.14-.035-.027c-.124-.094-.148-.112-.4-.1l-.228.011-.03-.227-4.2-31.1-12.008,7.385h0l-3.3,2.038h0c-.085.052-.2.136-.316.227a2.126,2.126,0,0,1-1.08.547h-.144l-.071-.124-.281-.492-.055-.1.035-.107.035-.106.029-.088.077-.047,14.5-8.91L263.9,709.1l-5.657-2.283h0c-.064-.026-.206-.077-.373-.137a6.305,6.305,0,0,1-1.356-.6l-2.759,1.533,15.693,21.041,23.338,18.706.095.075v.28l-.06.071-.387.456-.174.207-.192-.191-.095-.095L274.731,734.4h0l-4.247-3.4h0c-.095-.073-.245-.209-.418-.365a9.415,9.415,0,0,0-.941-.789l-8.476,20.235,29.863-1.223.246-.01.013.246.035.668.013.251-.253.01-29.918,1.215,7.72,17.267.1.227-.228.1-.633.281-.226.1-.1-.227-7.767-17.33-19.02,15.707,12.355,21.786,16.925-20.773.144-.176.02.013.011-.02.041-.032,22.064-17.216.069-.054h.241l.075.1.387.492.1.124-.071.142-.035.07-.025.051-.045.035L276.9,764.3l-4.181,3.268h0c-.155.119-.345.241-.544.369h0a4.813,4.813,0,0,0-1.022.781l17.234,12.787.215.16.1-.042c.413-.17.9-.372,1.014-.585l4.246-29.374.035-.238.238.025.667.071.258.028-.037.255-4.086,28.708,18.332-7.051v0l5.657-2.143.23-.087.09.231.245.632.091.234-.235.089-24.574,9.39-.035,24.718,20.993-2.452-1.708-1.708h0l-18.095-18.2-.169-.17.164-.176.456-.492.176-.188.182.181,4.041,4.006h0l15.849,15.952,4.844-31.519.038-.248.247.039.667.106.246.039-.037.244-4.852,31.605,19.709-8.987-13.878-23.583Zm-36.127,13.357,3.848-2.072-17.1-12.742-16.31,20.046,20.552-.342,9.014-4.89Zm-13.1-53.34Zm28.792,18.6,19.295,19.058,6.154-20.845h-.085l-25.365,1.787Zm16.413-22.313,9.448,17.893.142-.06,25.3-10.754-34.886-7.079Zm9.985,18.908.307.582L352,759.627l-.035-24.555-26.252,11.1-.045.02ZM266.625,728.73l-.062-.235-.237.056-13.457,3.233-.251.061.069.248.176.633.065.231.233-.056,13.354-3.19h.369l-.083-.313Z" transform="translate(-234.812 -687.309)"/>
			</g>
			<path class="c" d="M344.073,788.749a6.522,6.522,0,1,0,6.522,6.521A6.521,6.521,0,0,0,344.073,788.749Z" transform="translate(-249.981 -702.397)"/>
			<path class="d" d="M338.345,730.637a6.522,6.522,0,1,0,6.521,6.521A6.521,6.521,0,0,0,338.345,730.637Z" transform="translate(-248.553 -687.906)"/>
			<path class="e" d="M277.178,747.016a6.522,6.522,0,1,0-6.522-6.523A6.523,6.523,0,0,0,277.178,747.016Z" transform="translate(-233.3 -688.737)"/>
			<path class="f" d="M285.5,793.908a6.521,6.521,0,1,0-6.521,6.521A6.521,6.521,0,0,0,285.5,793.908Z" transform="translate(-233.749 -702.057)"/>
			<path class="g" d="M307.042,731.362a4.986,4.986,0,1,0-5.584-4.3A4.986,4.986,0,0,0,307.042,731.362Z" transform="translate(-240.97 -685.61)"/>
			<path class="h" d="M289.741,698.405a4.986,4.986,0,1,0-4.986-4.986A4.985,4.985,0,0,0,289.741,698.405Z" transform="translate(-236.816 -677.382)"/>
			<path class="i" d="M238.646,787.386a4.986,4.986,0,1,0,4.986,4.986A4.986,4.986,0,0,0,238.646,787.386Z" transform="translate(-224.074 -702.057)"/>
			<path class="j" d="M336.941,837.445a4.986,4.986,0,1,0,4.986,4.986A4.985,4.985,0,0,0,336.941,837.445Z" transform="translate(-248.586 -714.54)"/>
			<path class="k" d="M361.188,801.717a4.986,4.986,0,1,0,4.985-4.986A4.985,4.985,0,0,0,361.188,801.717Z" transform="translate(-255.876 -704.388)"/>
			<path class="l" d="M342.46,714.18a4.986,4.986,0,1,0-4.985-4.986A4.985,4.985,0,0,0,342.46,714.18Z" transform="translate(-249.962 -681.316)"/>
			<path class="m" d="M251.449,745.58a4.986,4.986,0,1,0,4.986-4.986A4.986,4.986,0,0,0,251.449,745.58Z" transform="translate(-228.51 -690.389)"/>
			<path class="n" d="M387.191,750.984A4.986,4.986,0,1,0,382.2,746,4.985,4.985,0,0,0,387.191,750.984Z" transform="translate(-261.117 -690.493)"/>
			<path class="o" d="M358.464,764.84a4.986,4.986,0,1,0-4.3,5.584A4.987,4.987,0,0,0,358.464,764.84Z" transform="translate(-252.72 -695.351)"/>
			<path class="p" d="M270.376,769.549a4.986,4.986,0,1,0-4.3,5.584A4.985,4.985,0,0,0,270.376,769.549Z" transform="translate(-230.754 -696.525)"/>
			<path class="q" d="M366.008,719.839a8.221,8.221,0,1,0-6.845-9.4A8.222,8.222,0,0,0,366.008,719.839Z" transform="translate(-255.346 -681.138)"/>
			<path class="r" d="M365.652,820.19a8.222,8.222,0,1,0,6.845,9.4A8.222,8.222,0,0,0,365.652,820.19Z" transform="translate(-254.62 -710.213)"/>
			<path class="s" d="M256.287,813.953a8.222,8.222,0,1,0,6.845,9.4A8.222,8.222,0,0,0,256.287,813.953Z" transform="translate(-227.348 -708.657)"/>
			<path class="t" d="M254.065,719.424a8.222,8.222,0,1,0-6.844-9.4A8.221,8.221,0,0,0,254.065,719.424Z" transform="translate(-227.43 -681.034)"/>
			<circle class="u" cx="10.261" cy="10.261" r="10.261" transform="translate(64.846 20.455) rotate(-85.391)"/>
			<path class="v" d="M306.521,834.192a10.261,10.261,0,1,0,8.116,12.03A10.26,10.26,0,0,0,306.521,834.192Z" transform="translate(-239.196 -713.682)"/>
			<path class="w" d="M389.968,771.624a10.261,10.261,0,1,0,8.115,12.03A10.26,10.26,0,0,0,389.968,771.624Z" transform="translate(-260.005 -698.079)"/>
			<path class="x" d="M241.224,761.166a10.261,10.261,0,1,0-12.03,8.115A10.259,10.259,0,0,0,241.224,761.166Z" transform="translate(-220.889 -692.472)"/>
			<path class="y" d="M309,751.085a14.2,14.2,0,1,0,14.2,14.2A14.2,14.2,0,0,0,309,751.085Z" transform="translate(-239.319 -693.005)"/>
		</g>
		<g transform="translate(385.689 706.349)">
			<g transform="translate(0 75.727)">
				<path class="z" d="M444.864,830.792a5.662,5.662,0,0,1-4.426-1.651l1.264-1.247a4.128,4.128,0,0,0,3.2,1.194c1.633,0,2.582-.7,2.582-1.915a1.681,1.681,0,0,0-.492-1.3,2.174,2.174,0,0,0-1.369-.527l-1.476-.211a4.274,4.274,0,0,1-2.37-1,3.11,3.11,0,0,1-.914-2.388c0-2.178,1.581-3.671,4.18-3.671a5.205,5.205,0,0,1,3.881,1.423l-1.212,1.193a3.673,3.673,0,0,0-2.722-.965c-1.476,0-2.283.843-2.283,1.949a1.486,1.486,0,0,0,.474,1.159,2.793,2.793,0,0,0,1.405.579l1.422.211a4.137,4.137,0,0,1,2.335.93,3.271,3.271,0,0,1,1.019,2.564C449.359,829.422,447.48,830.792,444.864,830.792Z" transform="translate(-440.438 -818.077)"/>
				<path class="z" d="M466.194,830.722l-.86-2.512H460.4l-.861,2.512h-2.019l4.583-12.5h1.528l4.583,12.5Zm-3.284-9.677-1.949,5.55h3.846Z" transform="translate(-444.697 -818.112)"/>
				<path class="z" d="M480.681,825.576v5.146h-1.9v-5.146l-3.74-7.358h2.072l2.617,5.5,2.617-5.5h2.073Z" transform="translate(-449.068 -818.112)"/>
				<path class="z" d="M510,830.722V825.26h-5.075v5.462h-1.9v-12.5h1.9v5.338H510v-5.338h1.9v12.5Z" transform="translate(-456.046 -818.112)"/>
				<path class="z" d="M522.986,830.722v-12.5h7.991v1.7h-6.094v3.653h5.2v1.687h-5.2v3.758h6.094v1.7Z" transform="translate(-461.023 -818.112)"/>
				<path class="z" d="M540.886,830.722v-12.5h1.9v10.8h6.024v1.7Z" transform="translate(-465.487 -818.112)"/>
				<path class="z" d="M558.107,830.722v-12.5H560v10.8h6.024v1.7Z" transform="translate(-469.781 -818.112)"/>
				<path class="z" d="M581.815,829.457a4.729,4.729,0,0,1-6.585,0c-1.229-1.23-1.211-2.617-1.211-5.022s-.018-3.794,1.211-5.023a4.729,4.729,0,0,1,6.585,0c1.229,1.229,1.195,2.617,1.195,5.023S583.044,828.228,581.815,829.457Zm-1.44-8.9a2.628,2.628,0,0,0-3.723,0c-.615.667-.737,1.369-.737,3.881s.122,3.213.737,3.882a2.629,2.629,0,0,0,3.723,0c.615-.668.738-1.371.738-3.882S580.99,821.221,580.375,820.554Z" transform="translate(-473.749 -818.077)"/>
				<path class="z" d="M606.8,819.921v10.8h-1.9v-10.8h-3.442v-1.7h8.781v1.7Z" transform="translate(-480.593 -818.112)"/>
				<path class="z" d="M626.553,829.457a4.729,4.729,0,0,1-6.585,0c-1.23-1.23-1.212-2.617-1.212-5.022s-.017-3.794,1.212-5.023a4.729,4.729,0,0,1,6.585,0c1.23,1.229,1.194,2.617,1.194,5.023S627.782,828.228,626.553,829.457Zm-1.44-8.9a2.628,2.628,0,0,0-3.723,0c-.614.667-.738,1.369-.738,3.881s.124,3.213.738,3.882a2.63,2.63,0,0,0,3.723,0c.615-.668.738-1.371.738-3.882S625.727,821.221,625.112,820.554Z" transform="translate(-484.905 -818.077)"/>
				<path class="z" d="M652.733,830.722h-5.058v-12.5h4.864c2.319,0,3.776,1.317,3.776,3.424a2.831,2.831,0,0,1-1.686,2.652,2.972,2.972,0,0,1,1.88,2.9C656.508,829.492,654.945,830.722,652.733,830.722Zm-.352-10.8h-2.81V823.5h2.81c1.212,0,2.038-.632,2.038-1.791S653.593,819.921,652.381,819.921Zm.176,5.286h-2.986v3.811h2.986a1.911,1.911,0,1,0,0-3.811Z" transform="translate(-492.117 -818.112)"/>
				<path class="z" d="M666.979,830.722v-12.5h1.9v12.5Z" transform="translate(-496.93 -818.112)"/>
				<path class="z" d="M684.977,829.369a4.792,4.792,0,0,1-6.726.088c-1.229-1.23-1.212-2.617-1.212-5.022s-.017-3.794,1.212-5.023a4.474,4.474,0,0,1,3.284-1.335,4.4,4.4,0,0,1,4.548,3.881h-1.914a2.553,2.553,0,0,0-2.634-2.178,2.509,2.509,0,0,0-1.844.773c-.616.667-.756,1.369-.756,3.881s.14,3.231.756,3.9a2.5,2.5,0,0,0,1.844.755,2.653,2.653,0,0,0,2.037-.878,2.825,2.825,0,0,0,.632-1.967v-.7h-2.669v-1.615H686.1v1.913A4.682,4.682,0,0,1,684.977,829.369Z" transform="translate(-499.439 -818.077)"/>
				<path class="z" d="M706.03,830.722v-12.5h7.99v1.7h-6.094v3.653h5.2v1.687h-5.2v3.758h6.094v1.7Z" transform="translate(-506.669 -818.112)"/>
				<path class="z" d="M731.6,830.722l-5.778-8.8v8.8h-1.9v-12.5h1.738l5.778,8.78v-8.78h1.9v12.5Z" transform="translate(-511.132 -818.112)"/>
				<path class="z" d="M744.613,830.722v-12.5h7.99v1.7h-6.094v3.653h5.2v1.687h-5.2v3.758H752.6v1.7Z" transform="translate(-516.29 -818.112)"/>
				<path class="z" d="M769.414,830.722l-2.634-5.269h-2.371v5.269h-1.9v-12.5h4.847a3.577,3.577,0,0,1,3.882,3.653,3.284,3.284,0,0,1-2.494,3.318l2.88,5.532Zm-2.2-10.8h-2.81v3.916h2.81a1.965,1.965,0,1,0,0-3.916Z" transform="translate(-520.754 -818.112)"/>
				<path class="z" d="M788.958,829.369a4.792,4.792,0,0,1-6.726.088c-1.23-1.23-1.212-2.617-1.212-5.022s-.017-3.794,1.212-5.023a4.474,4.474,0,0,1,3.284-1.335,4.4,4.4,0,0,1,4.548,3.881H788.15a2.553,2.553,0,0,0-2.634-2.178,2.508,2.508,0,0,0-1.844.773c-.616.667-.756,1.369-.756,3.881s.14,3.231.756,3.9a2.5,2.5,0,0,0,1.844.755,2.653,2.653,0,0,0,2.037-.878,2.826,2.826,0,0,0,.632-1.967v-.7h-2.669v-1.615h4.565v1.913A4.682,4.682,0,0,1,788.958,829.369Z" transform="translate(-525.369 -818.077)"/>
				<path class="z" d="M803.949,825.576v5.146h-1.9v-5.146l-3.74-7.358h2.072l2.617,5.5,2.617-5.5h2.073Z" transform="translate(-529.681 -818.112)"/>
			</g>
			<path class="aa" d="M440.485,719.11h63.127v7.76h-33l-4.58,15.825h28.826a6.388,6.388,0,0,1,4.714,2.141,4.7,4.7,0,0,1,1.078,2.867v37.46a2.5,2.5,0,0,1-1.527,2.1,3.443,3.443,0,0,1-1.437.306H481.791q0-.077-4.041-7.721h11.225V752.34h-25.8c-.119.459-3.179,10.919-10.3,35.23H440.485q1.571-5.428,10.417-35.663l7.319-25.037H440.485Z" transform="translate(-440.45 -717.67)"/>
			<path class="aa" d="M540.611,717.192h11.674c.509.917,2.775,4.918,6.667,11.646h17.6q.09-.037,2.6-4.434l3.97-7.212h11.718c-3.921,6.778-6.1,10.78-6.573,11.646h11.046v7.721H536.188v-7.721h11.046V728.8ZM549.7,738.7h13.065v.038c-8.89,9.48-13.163,14.016-13.253,14.067H536.4C545.265,743.325,549.553,738.776,549.7,738.7ZM539.2,754.946h51.05a6.318,6.318,0,0,1,5.163,2.37,4.316,4.316,0,0,1,.943,2.523v19.533h2.964v5.378a2.343,2.343,0,0,1-2.344,2.343H536.188v-7.721h2.919c.059,0,.089-.026.089-.077Zm10.91,7.759v16.666h5.433c.029,0,.045-.026.045-.077V762.7Zm14.907,0v16.666h5.477V762.7Zm7.723-24.005H585.8c.149.077,4.417,4.625,13.278,14.105H585.969c-.09-.05-4.343-4.586-13.233-14.067ZM579.92,762.7v16.59c0,.051.029.077.09.077H585.4V762.7Z" transform="translate(-464.315 -717.192)"/>
			<path class="aa" d="M726.7,719.314q4.22,14.22,4.535,15.06A9.87,9.87,0,0,0,732,736.82h10.1l-5.209-17.506Z" transform="translate(-511.822 -717.721)"/>
			<path class="aa" d="M726.7,801.323H736.89L742.1,774.26H731.951Q726.877,800.368,726.7,801.323Z" transform="translate(-511.822 -731.423)"/>
			<path class="aa" d="M795.047,719.314H749.878V762.3a143.852,143.852,0,0,1-2.2,25.074l-.044.247H757.78q2.245-12.576,2.245-12.92V727.035h35.021Z" transform="translate(-517.043 -717.721)"/>
			<path class="aa" d="M726.7,746.761q.448,1.644,5.253,17.545H742.1l-5.209-17.545Z" transform="translate(-511.822 -724.566)"/>
			<path class="aa" d="M798.3,780.065l2.2,22.706h7.184l-2.245-22.706Z" transform="translate(-529.677 -732.871)"/>
			<path class="aa" d="M785.48,790.885a3.676,3.676,0,0,0,.628-.076q2.245-.688,2.245-2.485V764.051H798.77V743.181a4.728,4.728,0,0,0-1.033-3.1,6.207,6.207,0,0,0-4.893-2.217H786.6c0-.051,1.3-2.09,3.453-5.429V732.4h-9.428c-2.066,3.263-3.394,5.314-3.544,5.467h-8.576v26.183h10.462v19.036c0,.051-.029.077-.089.077h-2.425l4.166,7.721Zm-7.544-46.558h11.4v3.74c-7.412,0-11.3-.009-11.359-.009l-.046.009Zm0,13.264v-4.221c.12,0,3.968.047,11.4.047v4.174Z" transform="translate(-522.249 -720.985)"/>
			<path class="aa" d="M768.779,780.065q-2.2,21.789-2.244,22.706h7.184c.011-.158.132-1.4.361-3.729q.161-1.637.395-3.992.546-5.523,1.489-14.985Z" transform="translate(-521.757 -732.871)"/>
			<g transform="translate(143.711 0.064)">
				<path class="aa" d="M699.516,743.943l-9.877.023V733.6q.134,0,14.726-2.561v-7.721L689.683,725.8h-.044v-6.485H678.01v33.37l23.391-.054a4.973,4.973,0,0,0,2.47-.5,3.245,3.245,0,0,0,1.975-2.828v-5.361Z" transform="translate(-643.392 -717.785)"/>
				<path class="aa" d="M689.728,791.7c-.061,0-.089-.026-.089-.077V781.329q14.008-2.446,14.726-2.561v-7.76q-14.592,2.561-14.726,2.561v-6.947H678.01v32.8h24.02a4.916,4.916,0,0,0,1.528-.306q2.289-1.147,2.289-2.982V791.7H689.728Z" transform="translate(-643.392 -729.582)"/>
				<path class="aa" d="M650.475,720.99l2.205,11.042h-9.968l2.477-14.717v-.038H635.042c-2.036,13-3.15,19.686-3.15,19.839v.267a2.294,2.294,0,0,0,.089.535,2.924,2.924,0,0,0,2.918,1.873h29.544c-.061-.382-1.352-6.8-3.777-18.8Z" transform="translate(-631.892 -717.277)"/>
				<path class="aa" d="M660.132,750.811a7.8,7.8,0,0,0-3.95-.688H632.969V795.3h10.147V781.7h9.923v5.886H646.41c.958,1.81,2.123,4.014,2.184,4.089q1.795,3.517,1.931,3.632h9.832a3.673,3.673,0,0,0,.629-.076c1.5-.459,2.245-1.288,2.245-4.159V754.928a4.006,4.006,0,0,0-.36-1.4A5.277,5.277,0,0,0,660.132,750.811Zm-17.016,6.5c0-.05.029-.077.089-.077h9.833v6.628h-9.923Zm0,17.9v-4.869c5.492,0,7.779.02,9.923,0v4.869Z" transform="translate(-632.161 -725.468)"/>
			</g>
		</g>
	</g>
</svg>