<?xml version="1.0" encoding="UTF-8"?>
<svg width="188px" height="188px" viewBox="0 0 188 188" version="1.1" xmlns="http://www.w3.org/2000/svg" xmlns:xlink="http://www.w3.org/1999/xlink">
    <title>logo</title>
    <defs>
        <linearGradient x1="75.4000759%" y1="6.9%" x2="21.0999137%" y2="89.5%" id="linearGradient-1">
            <stop stop-color="#00FFEE" offset="0%"></stop>
            <stop stop-color="#008077" stop-opacity="0" offset="100%"></stop>
        </linearGradient>
        <linearGradient x1="-429.3%" y1="-472.9%" x2="198.2%" y2="211.6%" id="linearGradient-2">
            <stop stop-color="#75BC49" offset="0%"></stop>
            <stop stop-color="#70BB55" offset="15.5%"></stop>
            <stop stop-color="#64B877" offset="44.2%"></stop>
            <stop stop-color="#50B4AE" offset="82.5%"></stop>
            <stop stop-color="#47B3CA" offset="100%"></stop>
        </linearGradient>
        <linearGradient x1="-247.7%" y1="-274.8%" x2="379.8%" y2="409.8%" id="linearGradient-3">
            <stop stop-color="#75BC49" offset="0%"></stop>
            <stop stop-color="#70BB55" offset="15.5%"></stop>
            <stop stop-color="#64B877" offset="44.2%"></stop>
            <stop stop-color="#50B4AE" offset="82.5%"></stop>
            <stop stop-color="#47B3CA" offset="100%"></stop>
        </linearGradient>
        <linearGradient x1="-96.5%" y1="-109.9%" x2="530.9%" y2="574.7%" id="linearGradient-4">
            <stop stop-color="#75BC49" offset="0%"></stop>
            <stop stop-color="#70BB55" offset="15.5%"></stop>
            <stop stop-color="#64B877" offset="44.2%"></stop>
            <stop stop-color="#50B4AE" offset="82.5%"></stop>
            <stop stop-color="#47B3CA" offset="100%"></stop>
        </linearGradient>
        <linearGradient x1="-254.4%" y1="-282.1%" x2="373.1%" y2="402.5%" id="linearGradient-5">
            <stop stop-color="#75BC49" offset="0%"></stop>
            <stop stop-color="#70BB55" offset="15.5%"></stop>
            <stop stop-color="#64B877" offset="44.2%"></stop>
            <stop stop-color="#50B4AE" offset="82.5%"></stop>
            <stop stop-color="#47B3CA" offset="100%"></stop>
        </linearGradient>
        <linearGradient x1="-185.7%" y1="-207.1%" x2="635.1%" y2="688.3%" id="linearGradient-6">
            <stop stop-color="#75BC49" offset="0%"></stop>
            <stop stop-color="#70BB55" offset="15.5%"></stop>
            <stop stop-color="#64B877" offset="44.2%"></stop>
            <stop stop-color="#50B4AE" offset="82.5%"></stop>
            <stop stop-color="#47B3CA" offset="100%"></stop>
        </linearGradient>
        <linearGradient x1="-4.7%" y1="-9.7%" x2="816.1%" y2="885.8%" id="linearGradient-7">
            <stop stop-color="#75BC49" offset="0%"></stop>
            <stop stop-color="#70BB55" offset="15.5%"></stop>
            <stop stop-color="#64B877" offset="44.2%"></stop>
            <stop stop-color="#50B4AE" offset="82.5%"></stop>
            <stop stop-color="#47B3CA" offset="100%"></stop>
        </linearGradient>
        <linearGradient x1="-200%" y1="-222.9%" x2="620.6%" y2="672.7%" id="linearGradient-8">
            <stop stop-color="#75BC49" offset="0%"></stop>
            <stop stop-color="#70BB55" offset="15.5%"></stop>
            <stop stop-color="#64B877" offset="44.2%"></stop>
            <stop stop-color="#50B4AE" offset="82.5%"></stop>
            <stop stop-color="#47B3CA" offset="100%"></stop>
        </linearGradient>
        <linearGradient x1="-725.8%" y1="-796.3%" x2="95.1%" y2="99.3%" id="linearGradient-9">
            <stop stop-color="#75BC49" offset="0%"></stop>
            <stop stop-color="#70BB55" offset="15.5%"></stop>
            <stop stop-color="#64B877" offset="44.2%"></stop>
            <stop stop-color="#50B4AE" offset="82.5%"></stop>
            <stop stop-color="#47B3CA" offset="100%"></stop>
        </linearGradient>
        <linearGradient x1="-474.8%" y1="-522.3%" x2="346.1%" y2="372.9%" id="linearGradient-10">
            <stop stop-color="#75BC49" offset="0%"></stop>
            <stop stop-color="#70BB55" offset="15.5%"></stop>
            <stop stop-color="#64B877" offset="44.2%"></stop>
            <stop stop-color="#50B4AE" offset="82.5%"></stop>
            <stop stop-color="#47B3CA" offset="100%"></stop>
        </linearGradient>
        <linearGradient x1="-673.6%" y1="-739.4%" x2="147.3%" y2="156.2%" id="linearGradient-11">
            <stop stop-color="#75BC49" offset="0%"></stop>
            <stop stop-color="#70BB55" offset="15.5%"></stop>
            <stop stop-color="#64B877" offset="44.2%"></stop>
            <stop stop-color="#50B4AE" offset="82.5%"></stop>
            <stop stop-color="#47B3CA" offset="100%"></stop>
        </linearGradient>
        <linearGradient x1="-245.1%" y1="-271.9%" x2="575.8%" y2="623.6%" id="linearGradient-12">
            <stop stop-color="#75BC49" offset="0%"></stop>
            <stop stop-color="#70BB55" offset="15.5%"></stop>
            <stop stop-color="#64B877" offset="44.2%"></stop>
            <stop stop-color="#50B4AE" offset="82.5%"></stop>
            <stop stop-color="#47B3CA" offset="100%"></stop>
        </linearGradient>
        <linearGradient x1="-85.8%" y1="-98.2%" x2="734.9%" y2="797.4%" id="linearGradient-13">
            <stop stop-color="#75BC49" offset="0%"></stop>
            <stop stop-color="#70BB55" offset="15.5%"></stop>
            <stop stop-color="#64B877" offset="44.2%"></stop>
            <stop stop-color="#50B4AE" offset="82.5%"></stop>
            <stop stop-color="#47B3CA" offset="100%"></stop>
        </linearGradient>
        <linearGradient x1="-536.9%" y1="-590%" x2="284.1%" y2="305.2%" id="linearGradient-14">
            <stop stop-color="#75BC49" offset="0%"></stop>
            <stop stop-color="#70BB55" offset="15.5%"></stop>
            <stop stop-color="#64B877" offset="44.2%"></stop>
            <stop stop-color="#50B4AE" offset="82.5%"></stop>
            <stop stop-color="#47B3CA" offset="100%"></stop>
        </linearGradient>
        <linearGradient x1="-494%" y1="-543.4%" x2="326.7%" y2="351.8%" id="linearGradient-15">
            <stop stop-color="#75BC49" offset="0%"></stop>
            <stop stop-color="#70BB55" offset="15.5%"></stop>
            <stop stop-color="#64B877" offset="44.2%"></stop>
            <stop stop-color="#50B4AE" offset="82.5%"></stop>
            <stop stop-color="#47B3CA" offset="100%"></stop>
        </linearGradient>
        <linearGradient x1="-504.2%" y1="-554.6%" x2="316.6%" y2="340.9%" id="linearGradient-16">
            <stop stop-color="#75BC49" offset="0%"></stop>
            <stop stop-color="#70BB55" offset="15.5%"></stop>
            <stop stop-color="#64B877" offset="44.2%"></stop>
            <stop stop-color="#50B4AE" offset="82.5%"></stop>
            <stop stop-color="#47B3CA" offset="100%"></stop>
        </linearGradient>
        <linearGradient x1="-208.9%" y1="-232.6%" x2="611.7%" y2="663%" id="linearGradient-17">
            <stop stop-color="#75BC49" offset="0%"></stop>
            <stop stop-color="#70BB55" offset="15.5%"></stop>
            <stop stop-color="#64B877" offset="44.2%"></stop>
            <stop stop-color="#50B4AE" offset="82.5%"></stop>
            <stop stop-color="#47B3CA" offset="100%"></stop>
        </linearGradient>
        <linearGradient x1="-191.1%" y1="-213%" x2="306.6%" y2="330%" id="linearGradient-18">
            <stop stop-color="#75BC49" offset="0%"></stop>
            <stop stop-color="#70BB55" offset="15.5%"></stop>
            <stop stop-color="#64B877" offset="44.2%"></stop>
            <stop stop-color="#50B4AE" offset="82.5%"></stop>
            <stop stop-color="#47B3CA" offset="100%"></stop>
        </linearGradient>
        <linearGradient x1="-450.108839%" y1="-495.6%" x2="47.5999576%" y2="47.4%" id="linearGradient-19">
            <stop stop-color="#75BC49" offset="0%"></stop>
            <stop stop-color="#70BB55" offset="15.5%"></stop>
            <stop stop-color="#64B877" offset="44.2%"></stop>
            <stop stop-color="#50B4AE" offset="82.5%"></stop>
            <stop stop-color="#47B3CA" offset="100%"></stop>
        </linearGradient>
        <linearGradient x1="-208%" y1="-231.4%" x2="289.7%" y2="311.5%" id="linearGradient-20">
            <stop stop-color="#75BC49" offset="0%"></stop>
            <stop stop-color="#70BB55" offset="15.5%"></stop>
            <stop stop-color="#64B877" offset="44.2%"></stop>
            <stop stop-color="#50B4AE" offset="82.5%"></stop>
            <stop stop-color="#47B3CA" offset="100%"></stop>
        </linearGradient>
        <linearGradient x1="43.2%" y1="42.6%" x2="540.9%" y2="585.5%" id="linearGradient-21">
            <stop stop-color="#75BC49" offset="0%"></stop>
            <stop stop-color="#70BB55" offset="15.5%"></stop>
            <stop stop-color="#64B877" offset="44.2%"></stop>
            <stop stop-color="#50B4AE" offset="82.5%"></stop>
            <stop stop-color="#47B3CA" offset="100%"></stop>
        </linearGradient>
        <linearGradient x1="-15.6%" y1="-21.5%" x2="383.2%" y2="413.5%" id="linearGradient-22">
            <stop stop-color="#75BC49" offset="0%"></stop>
            <stop stop-color="#70BB55" offset="15.5%"></stop>
            <stop stop-color="#64B877" offset="44.2%"></stop>
            <stop stop-color="#50B4AE" offset="82.5%"></stop>
            <stop stop-color="#47B3CA" offset="100%"></stop>
        </linearGradient>
        <linearGradient x1="-282.2%" y1="-312.5%" x2="116.5%" y2="122.6%" id="linearGradient-23">
            <stop stop-color="#75BC49" offset="0%"></stop>
            <stop stop-color="#70BB55" offset="15.5%"></stop>
            <stop stop-color="#64B877" offset="44.2%"></stop>
            <stop stop-color="#50B4AE" offset="82.5%"></stop>
            <stop stop-color="#47B3CA" offset="100%"></stop>
        </linearGradient>
        <linearGradient x1="-307.6%" y1="-340.1%" x2="91.2%" y2="94.9%" id="linearGradient-24">
            <stop stop-color="#75BC49" offset="0%"></stop>
            <stop stop-color="#70BB55" offset="15.5%"></stop>
            <stop stop-color="#64B877" offset="44.2%"></stop>
            <stop stop-color="#50B4AE" offset="82.5%"></stop>
            <stop stop-color="#47B3CA" offset="100%"></stop>
        </linearGradient>
        <linearGradient x1="-4.7%" y1="-9.7%" x2="394.1%" y2="425.4%" id="linearGradient-25">
            <stop stop-color="#75BC49" offset="0%"></stop>
            <stop stop-color="#70BB55" offset="15.5%"></stop>
            <stop stop-color="#64B877" offset="44.2%"></stop>
            <stop stop-color="#50B4AE" offset="82.5%"></stop>
            <stop stop-color="#47B3CA" offset="100%"></stop>
        </linearGradient>
        <linearGradient x1="-94.8%" y1="-107.9%" x2="193.4%" y2="206.4%" id="linearGradient-26">
            <stop stop-color="#75BC49" offset="0%"></stop>
            <stop stop-color="#70BB55" offset="15.5%"></stop>
            <stop stop-color="#64B877" offset="44.2%"></stop>
            <stop stop-color="#50B4AE" offset="82.5%"></stop>
            <stop stop-color="#47B3CA" offset="100%"></stop>
        </linearGradient>
    </defs>
    <g id="dd" stroke="none" stroke-width="1" fill="none" fill-rule="evenodd">
        <g id="画板" transform="translate(-337.000000, -200.000000)" fill-rule="nonzero">
            <g id="矩形-2" transform="translate(216.678334, 100.000000)">
                <g id="logo" transform="translate(120.328443, 100.006637)">
                    <circle id="椭圆_9410" fill="#030322" cx="93.9957226" cy="93.9960033" r="92.996"></circle>
                    <path d="M93.9997226,0 C100.36052,0 106.705237,0.638832774 112.937723,1.91000328 C124.961552,4.37256547 136.382804,9.17865212 146.549723,16.0540033 C161.659962,26.2558964 173.487587,40.6206429 180.599723,57.4080033 C183.003276,63.09449 184.837892,69.0049873 186.076723,75.0530033 C188.623019,87.5529818 188.623019,100.438025 186.076723,112.938003 C183.61416,124.961833 178.808074,136.383085 171.932723,146.550003 C161.731902,161.659644 147.368615,173.487212 130.582723,180.600003 C124.896236,183.003557 118.985739,184.838172 112.937723,186.077003 C100.437744,188.6233 87.5527011,188.6233 75.0527226,186.077003 C63.028893,183.614441 51.6076413,178.808354 41.4407226,171.933003 C26.3296026,161.732761 14.5005979,147.369416 7.38672258,130.583003 C4.98316931,124.896517 3.14855363,118.986019 1.90972258,112.938003 C-0.636574195,100.438025 -0.636574195,87.5529818 1.90972258,75.0530033 C4.37228478,63.0291737 9.17837142,51.607922 16.0537226,41.4410033 C26.2550372,26.3292847 40.6198411,14.5002227 57.4077226,7.38700328 C63.0942093,4.98345001 69.0047066,3.14883432 75.0527226,1.91000328 C81.2881547,0.638231066 87.6359175,0 93.9997226,0 Z M93.9997226,185.991003 C131.211068,185.991003 164.758176,163.574949 178.9975,129.1958 C193.236825,94.8166512 185.364046,55.245105 159.050364,28.9339973 C132.736682,2.62288972 93.1643658,-5.24601811 58.7866102,8.99666967 C24.4088546,23.2393574 1.99608234,56.788658 1.99972258,94.0000033 C2.05979521,144.783839 43.2158811,185.935899 93.9997226,185.991003 L93.9997226,185.991003 Z" id="椭圆_9410-2" fill="url(#linearGradient-1)"></path>
                    <g id="组_51304" transform="translate(45.005723, 47.353154)">
                        <path d="M46.309,86.3498494 L46.309,86.3498494 L46.286,86.1428494 C46.258,86.1618494 46.236,86.1788494 46.217,86.1938494 C46.189475,86.2235185 46.152217,86.2423249 46.112,86.2468494 C46.092042,86.2460409 46.0723937,86.241637 46.054,86.2338494 L40.954,80.5338494 L35.8,74.7678494 C32.82,74.8158494 29.8403333,74.8628494 26.861,74.9088494 L22.274,74.9808494 L22.297,75.0288494 C29.827,78.6588494 37.3563333,82.2925161 44.885,85.9298494 L44.67,86.3248494 C36.8473333,82.5408494 29.0236667,78.7578494 21.199,74.9758494 L21.293,74.7868494 L21.083,74.8868494 L20.605,74.0438494 C17.8776667,69.2351828 15.1503333,64.4288494 12.423,59.6248494 L12.446,59.5768494 L12.587,59.5058494 L12.528,59.5158494 C12.5112595,59.5197898 12.4941831,59.5221337 12.477,59.5228494 C12.4464109,59.5216884 12.4180385,59.506581 12.4,59.4818494 L10.952,51.5988494 L9.545,43.9448494 C9.61391481,43.9448272 9.68043608,43.9195705 9.732,43.8738494 L9.568,43.7988494 C12.322,38.0348494 15.0753333,32.2681828 17.828,26.4988494 L17.858,26.4358494 L21.105,19.6298494 L21.269,19.7008494 L21.269,19.6778494 L21.198,19.5368494 C24.212,17.8555161 27.2253333,16.1728494 30.238,14.4888494 L33.601,12.6108494 L34.824,11.9278494 L34.852,11.9128494 L36.618,10.9268494 C36.684,10.8878494 36.78,10.8268494 36.891,10.7558494 C37.2132134,10.5132899 37.5729739,10.3251334 37.956,10.1988494 L38.024,10.3378494 L38.001,10.1508494 C42.562,9.16284944 47.537,8.08484944 53.213,6.85084944 L53.261,7.06284944 C53.2839317,7.04716542 53.3112274,7.03911669 53.339,7.03984944 C53.606,7.03984944 54.166,7.63984944 54.616,8.11484944 C54.7916132,8.31323367 54.9793033,8.50058985 55.178,8.67584944 C58.2613333,11.7951828 61.343,14.9161828 64.423,18.0388494 L64.117,18.3648494 L62.504,16.7718494 L62.454,16.7208494 L62.162,16.4208494 C59.234,13.4488494 56.306,10.4755161 53.378,7.50084944 L53.33,7.52584944 C51.2466667,13.7745161 49.164,20.0241828 47.082,26.2748494 L50.756,27.6638494 L55.556,29.4808494 C57.8746667,30.3615161 60.1916667,31.2431828 62.507,32.1258494 L74.491,34.5628494 L87.829,37.2748494 L87.804,37.4848494 L88.019,37.4848494 L88.019,55.0608494 L87.996,55.0608494 C87.9144286,55.0565939 87.8330567,55.0723876 87.759,55.1068494 L87.688,55.2708494 L81.088,52.0048494 C77.3606667,50.1601828 73.633,48.3165161 69.905,46.4738494 C69.105,49.2025161 68.3033333,51.9315161 67.5,54.6608494 L67.491,54.6918494 L65.622,61.0548494 C67.504,61.5648494 69.3866667,62.0761828 71.27,62.5888494 L76.035,63.8888494 L84.695,56.9608494 L84.741,56.9858494 C84.7679158,57.0383079 84.8015302,57.0870489 84.841,57.1308494 C84.904,57.2058494 84.958,57.2698494 84.926,57.3578494 L76.265,64.2798494 L76.088,71.0988494 L75.937,76.8988494 L75.985,76.8758494 C79.425,70.3058494 82.8653333,63.7355161 86.306,57.1648494 L86.375,57.1898494 L86.704,57.4018494 C83.098,64.2571828 79.4936667,71.1131828 75.891,77.9698494 L75.704,77.8788494 L75.775,78.0888494 L68.629,81.3428494 L61.592,84.5428494 L61.545,84.3828494 L61.522,84.3828494 L61.545,84.5698494 L53.89,85.4638494 L46.31,86.3488494 L46.309,86.3498494 Z M62.833,62.3858494 L62.833,62.3858494 L62.994,62.8038494 L54.745,65.9598494 L46.525,69.0998494 L46.5,85.6928494 L46.222,85.7158494 L46.361,85.8828494 L46.384,85.8828494 L53.743,85.0228494 L61.011,84.1738494 L59.63,82.7928494 C56.9813333,80.1261828 54.3316667,77.4615161 51.681,74.7988494 L47.581,70.6708494 L47.887,70.3448494 C48.759,71.2115161 49.6313333,72.0761828 50.504,72.9388494 L50.548,72.9828494 L50.578,73.0128494 L55.972,78.4408494 L61.366,83.8688494 C62.374,77.3188494 63.447,70.3448494 64.643,62.5498494 L65.09,62.6208494 L63.778,71.1578494 L61.81,83.9578494 L61.835,83.9578494 L61.985,83.8888494 L75.385,77.7818494 L72.559,72.9818494 C70.3876667,69.2911828 68.217,65.6011828 66.047,61.9118494 L66.347,61.7248494 L65.266,61.3988494 L65.314,61.2118494 L65.127,61.3278494 L60.5,56.7638494 L60.375,56.6408494 C57.317,53.6261828 54.2583333,50.6121828 51.199,47.5988494 L51.366,47.4348494 L51.345,47.1988494 L60.305,46.5818494 L61.047,46.5308494 L69.387,45.9568494 L67.078,41.5648494 C65.5306667,38.6221828 63.984,35.6795161 62.438,32.7368494 C58.0733333,37.7115161 53.709,42.6878494 49.345,47.6658494 L49.304,47.7128494 L49.284,47.6978494 C49.2127286,47.6269883 49.1142349,47.5905092 49.014,47.5978494 C48.984,47.5978494 48.949,47.5978494 48.907,47.5978494 L48.645,45.6828494 C47.7983333,39.3848494 46.9496667,33.0868494 46.099,26.7888494 L46.145,26.7888494 L46.471,26.7198494 L46.494,26.5558494 L46.307,26.4848494 L45.193,27.1708494 C42.7483333,28.6748494 40.3043333,30.1771828 37.861,31.6778494 L35.661,33.0378494 C35.597,33.0778494 35.52,33.1378494 35.439,33.1968494 C35.2661116,33.3608067 35.0528817,33.4760475 34.821,33.5308494 L34.632,33.1998494 L34.655,33.1318494 L44.555,27.0458494 L44.532,26.9998494 L36.432,23.7268494 L28.78,20.6338494 L25.052,19.1338494 L25.013,19.1178494 C24.96,19.0958494 24.871,19.0648494 24.764,19.0268494 C24.416,18.9028494 23.834,18.6958494 23.819,18.5798494 L21.71,19.7478494 L32.29,33.9308494 L47.856,46.3988494 L47.856,46.4448494 L47.596,46.7448494 L47.525,46.6758494 C43.6983333,43.6245161 39.869,40.5691828 36.037,37.5098494 L33.205,35.2368494 C33.143,35.1898494 33.045,35.1008494 32.932,34.9988494 C32.649,34.7438494 32.262,34.3988494 32.106,34.3988494 L26.3,48.2508494 L26.445,48.2508494 L36.245,47.8508494 L46.445,47.4328494 L46.468,47.8758494 C42.9666667,48.0198494 39.4666667,48.1625161 35.968,48.3038494 L26.298,48.6948494 L28.873,54.4528494 L28.912,54.5408494 L29.185,55.1508494 L31.545,60.4188494 L31.125,60.6058494 C29.3763333,56.7091828 27.6293333,52.8125161 25.884,48.9158494 L25.858,48.8578494 L25.81,48.9038494 L24.045,50.3588494 L24.001,50.3948494 C20.3036667,53.4481828 16.6076667,56.5011828 12.913,59.5538494 C15.713,64.4871828 18.513,69.4248494 21.313,74.3668494 L21.429,74.2728494 L27.045,67.3818494 L27.414,66.9288494 L32.757,60.3738494 L32.896,60.4678494 C32.881,60.4458494 32.869,60.4298494 32.86,60.4168494 C32.818,60.3598494 32.818,60.3578494 32.865,60.2728494 L32.873,60.2578494 L39.031,55.4518494 L39.189,55.3288494 C41.983,53.1488494 44.7763333,50.9685161 47.569,48.7878494 L47.592,48.7878494 L47.852,49.1138494 L47.827,49.1638494 L45.013,51.3638494 C42.4343333,53.3871828 39.8553333,55.4075161 37.276,57.4248494 L34.492,59.5988494 C34.392,59.6738494 34.27,59.7528494 34.139,59.8368494 C33.8172692,60.0058574 33.537696,60.2451009 33.321,60.5368494 C36.66,63.0168494 40.24,65.6738494 44.93,69.1498494 L44.857,69.2208494 L44.645,69.4988494 L32.995,60.8158494 L32.922,60.8638494 L26.922,68.2388494 L21.783,74.5538494 L26.513,74.4748494 L26.731,74.4748494 C29.7776667,74.4241828 32.8246667,74.3741828 35.872,74.3248494 L37.142,73.6348494 L41.908,71.0478494 L44.952,69.4098494 C45.0662161,69.3489185 45.1841102,69.2951481 45.305,69.2488494 C45.626,69.1168494 45.989,68.9668494 46.075,68.7548494 C46.5416667,65.5175161 47.0083333,62.2801828 47.475,59.0428494 L47.475,59.0078494 C47.9496667,55.7278494 48.424,52.4478494 48.898,49.1678494 L49.341,49.2138494 C48.8103333,52.9938494 48.2756667,56.7738494 47.737,60.5538494 L46.589,68.6108494 L50.099,67.2608494 L59.065,63.8138494 L62.83,62.3858494 L62.833,62.3858494 Z M46.033,69.3368494 C43.5996667,70.6448494 41.1676667,71.9555161 38.737,73.2688494 L36.27,74.5988494 L39.622,78.3538494 L39.822,78.5728494 C41.8926667,80.8928494 43.9636667,83.2121828 46.035,85.5308494 L46.058,85.5308494 L46.033,69.3368494 Z M66.459,61.7288494 L70.995,69.4288494 L71.185,69.7518494 L75.493,77.0618494 C75.5483333,74.9138494 75.6033333,72.7655161 75.658,70.6168494 C75.7113333,68.5121828 75.765,66.4081828 75.819,64.3048494 L73.66,63.7118494 L73.56,63.6848494 C71.1926667,63.0341828 68.826,62.3828494 66.46,61.7308494 L66.459,61.7288494 Z M69.175,46.3988494 L51.902,47.6188494 L52.033,47.7488494 C56.421,52.0821828 60.809,56.4155161 65.197,60.7488494 L65.22,60.7488494 L69.455,46.3988494 L69.175,46.3988494 Z M10.061,44.2228494 L10.061,44.2228494 C10.965,49.1701828 11.8703333,54.1161828 12.777,59.0608494 L19.305,53.6608494 L25.458,48.5738494 L20.285,47.1158494 C16.8763333,46.1525161 13.4683333,45.1881828 10.061,44.2228494 Z M62.901,32.6648494 L63.26,33.3448494 C65.4886667,37.5635161 67.717,41.7815161 69.945,45.9988494 C75.819,48.8995161 81.693,51.8015161 87.567,54.7048494 C87.5636667,51.9235161 87.56,49.1425161 87.556,46.3618494 C87.5526667,43.5198494 87.549,40.6778494 87.545,37.8358494 L69.83,45.3228494 L69.668,44.9228494 L79.829,40.6028494 L87.007,37.5518494 C78.92,35.9128494 70.776,34.2618494 62.901,32.6648494 Z M21.364,20.0748494 C17.638,27.9168494 13.9133333,35.7601828 10.19,43.6048494 L10.107,43.7808494 L10.277,43.8288494 C15.4616667,45.2868494 20.6473333,46.7435161 25.834,48.1988494 L28.777,41.1638494 L28.813,41.0778494 L31.777,33.9988494 L26.93,27.5178494 L26.557,27.0178494 L21.365,20.0758494 L21.364,20.0748494 Z M46.918,26.7428494 L46.66,27.5168494 L47.292,32.1498494 C47.686,35.0505161 48.0783333,37.9505161 48.469,40.8498494 L48.486,40.9728494 L49.305,47.0318494 L54.388,41.2228494 L54.522,41.0698494 C57.0426667,38.1891828 59.5626667,35.3088494 62.082,32.4288494 L53.545,29.2278494 L46.919,26.7428494 L46.918,26.7428494 Z M24.29,18.3428494 L44.857,26.6488494 L44.789,26.8818494 L44.812,26.8818494 L45.257,26.6258494 L43.908,23.7868494 L43.887,23.7418494 C42.5496667,20.9285161 41.2116667,18.1141828 39.873,15.2988494 L38.545,12.5138494 C38.5098637,12.4398227 38.4708084,12.3677205 38.428,12.2978494 C38.3299502,12.1606312 38.2652378,12.0024453 38.239,11.8358494 L38.639,11.6718494 L38.714,11.8298494 C41.0213333,16.6678494 43.3283333,21.5065161 45.635,26.3458494 C45.7543463,26.3241132 45.8659952,26.2717347 45.959,26.1938494 C45.9907997,26.1599761 46.0345833,26.1398787 46.081,26.1378494 C46.1619301,26.1463285 46.24059,26.1697231 46.313,26.2068494 C46.3176938,26.1448984 46.3426437,26.0862135 46.384,26.0398494 L46.447,26.0658494 C46.496349,26.0928182 46.550252,26.1104468 46.606,26.1178494 C46.6297588,26.1198182 46.6525937,26.1082072 46.665,26.0878494 C48.745,19.8558494 50.826,13.6228494 52.908,7.38884944 L52.845,7.38884944 C48.3563333,8.36284944 43.8676667,9.33284944 39.379,10.2988494 L39.269,10.3228494 L38.145,10.5698494 L31.215,14.4428494 C28.8903333,15.7421828 26.566,17.0421828 24.242,18.3428494 L24.29,18.3428494 Z M86.306,36.5988494 L86.306,36.5988494 C83.8293333,32.7115161 81.3533333,28.8235161 78.878,24.9348494 L76.008,20.4278494 L75.844,20.5918494 C71.4373333,24.3845161 67.03,28.1758494 62.622,31.9658494 L62.531,31.8978494 L62.46,31.8048494 L62.245,31.8048494 C62.3696667,29.0715161 62.4933333,26.3398494 62.616,23.6098494 L62.616,23.5818494 L62.805,19.3768494 L63.252,19.3998494 L62.952,25.9588494 L62.71,31.2888494 C66.5033333,28.0221828 70.2986667,24.7525161 74.096,21.4798494 L75.886,19.9378494 L76.048,20.0798494 L76.26,19.9858494 L79.394,24.9198494 C81.8206667,28.7425161 84.247,32.5665161 86.673,36.3918494 L86.303,36.6008494 L86.306,36.5988494 Z M21.526,36.4798494 L21.526,36.4798494 L21.41,36.0598494 L25.863,34.9908494 L25.925,34.9758494 L30.374,33.9078494 L30.49,34.3528494 L30.445,34.3528494 L21.529,36.4818494 L21.526,36.4798494 Z M77.016,20.1698494 L77.016,20.1698494 L69.945,15.8678494 L55.156,6.86784944 L55.391,6.49884944 C60.0803333,9.35751611 64.7706667,12.2155161 69.462,15.0728494 L77.245,19.8168494 L77.014,20.1658494 L77.016,20.1698494 Z" id="排除_1" fill="#75BC49"></path>
                        <circle id="椭圆_9480" fill="url(#linearGradient-2)" cx="65.055" cy="61.3328494" r="4.344"></circle>
                        <circle id="椭圆_9481" fill="url(#linearGradient-3)" cx="62.191" cy="32.2788494" r="4.344"></circle>
                        <circle id="椭圆_9482" fill="url(#linearGradient-4)" cx="31.609" cy="33.9468494" r="4.344"></circle>
                        <circle id="椭圆_9483" fill="url(#linearGradient-5)" cx="32.51" cy="60.6518494" r="4.344"></circle>
                        <circle id="椭圆_9484" fill="url(#linearGradient-6)" cx="45.966" cy="26.6538494" r="3.321"></circle>
                        <circle id="椭圆_9485" fill="url(#linearGradient-7)" cx="37.635" cy="10.1558494" r="3.321"></circle>
                        <path d="M12.092,56.3078494 C10.2589358,56.308954 8.77363247,57.7954512 8.7740006,59.6285157 C8.77436887,61.4615802 10.2602692,62.9474806 12.0933337,62.9478488 C13.9263982,62.948217 15.4128954,61.4629136 15.414,59.6298494 C15.414,57.7951595 13.9266899,56.3078494 12.092,56.3078494 L12.092,56.3078494 Z" id="路径_73945" fill="url(#linearGradient-8)"></path>
                        <path d="M61.233,81.3368481 C59.3995452,81.337954 57.9140802,82.8250605 57.9150001,84.6585154 C57.9159209,86.4919703 59.4028782,87.9775847 61.2363331,87.9768488 C63.0697881,87.9761124 64.5555519,86.4893045 64.5550002,84.6558494 C64.5550002,83.7750759 64.2049092,82.9304203 63.581827,82.3079007 C62.9587447,81.6853812 62.1137732,81.3360533 61.233,81.3368481 L61.233,81.3368481 Z" id="路径_73946" fill="url(#linearGradient-9)"></path>
                        <path d="M35.502,71.4658493 C33.6673101,71.4658493 32.18,72.9531595 32.18,74.7878494 C32.18,76.6225394 33.6673101,78.1098494 35.502,78.1098494 C37.3366899,78.1098494 38.8240002,76.6225394 38.8240002,74.7878494 C38.8242654,73.9067189 38.4743552,73.061601 37.8513018,72.4385477 C37.2282484,71.8154943 36.3831305,71.4655841 35.502,71.4658493 L35.502,71.4658493 Z" id="路径_73947" fill="url(#linearGradient-10)"></path>
                        <path d="M72.5289998,64.2998494 C72.5285955,65.642846 73.3373393,66.8538086 74.578029,67.367938 C75.8187187,67.8820674 77.2469523,67.5980858 78.1965944,66.6484438 C79.1462364,65.6988018 79.4302179,64.2705681 78.9160885,63.0298784 C78.4019592,61.7891887 77.1909966,60.980445 75.848,60.9808493 C74.0149669,60.9808493 72.5289998,62.4668164 72.5289998,64.2998494 L72.5289998,64.2998494 Z" id="路径_73948" fill="url(#linearGradient-11)"></path>
                        <circle id="椭圆_9486" fill="url(#linearGradient-12)" cx="63.994" cy="18.0428494" r="3.321"></circle>
                        <path d="M17.6609986,36.2338494 C17.6597864,37.5777454 18.4683958,38.7899875 19.7096455,39.3051154 C20.9508953,39.8202432 22.3802385,39.536768 23.330946,38.5869191 C24.2816535,37.6370701 24.56642,36.2079836 24.0524138,34.966269 C23.5384076,33.7245543 22.3268965,32.9148494 20.983,32.9148494 C19.149481,32.9148494 17.6626558,34.4003312 17.6609986,36.2338494 L17.6609986,36.2338494 Z" id="路径_73949" fill="url(#linearGradient-13)"></path>
                        <path d="M86.359,39.7658496 C88.1936899,39.7658496 89.681,38.2785394 89.681,36.4438494 C89.681,34.6091595 88.1936899,33.1218494 86.359,33.1218494 C84.5243101,33.1218494 83.0369998,34.6091595 83.0369998,36.4438494 C83.0367346,37.3249799 83.3866448,38.1700978 84.0096982,38.7931512 C84.6327516,39.4162046 85.4778695,39.7661148 86.359,39.7658496 L86.359,39.7658496 Z" id="路径_73950" fill="url(#linearGradient-14)"></path>
                        <path d="M72.816,45.7578494 C72.580535,43.9390024 70.9152641,42.6553626 69.0963967,42.8906698 C67.2775292,43.125977 65.993745,44.7911365 66.2288943,46.6100243 C66.4640436,48.4289122 68.1290918,49.712841 69.948,49.4778494 C70.8216727,49.3649764 71.6147032,48.9096042 72.152579,48.211941 C72.6904548,47.5142779 72.9291004,46.6314927 72.816,45.7578494 Z" id="路径_73951" fill="url(#linearGradient-15)"></path>
                        <circle id="椭圆_9487" fill="url(#linearGradient-16)" cx="45.923" cy="69.1628494" r="3.321"></circle>
                        <path d="M28.775,48.1128494 C28.6037127,46.7803675 27.6464975,45.6823347 26.3498299,45.3309083 C25.0531622,44.9794819 23.672489,45.4438938 22.8517999,46.5075275 C22.0311107,47.5711613 21.9320835,49.0244783 22.6009076,50.1896057 C23.2697317,51.3547331 24.5746471,52.0021376 25.907,51.8298494 C27.7250266,51.5947582 29.0087256,49.9310521 28.775,48.1128494 L28.775,48.1128494 Z" id="路径_73952" fill="url(#linearGradient-17)"></path>
                        <path d="M76.092,25.2518494 C78.2799638,25.5958686 80.4597177,24.5880103 81.6148389,22.6982407 C82.7699602,20.808471 82.6729656,18.4089508 81.3690839,16.6185801 C80.0652021,14.8282095 77.8112126,13.9995743 75.6581542,14.5190683 C73.5050958,15.0385624 71.8769801,16.8038795 71.533,18.9918494 C71.0633102,21.9794269 73.1044309,24.7821063 76.092,25.2518494 Z" id="路径_73953" fill="url(#linearGradient-18)"></path>
                        <path d="M76.338,72.7268494 C74.1500362,72.3828303 71.9702823,73.3906885 70.8151611,75.2804582 C69.6600398,77.1702279 69.7570344,79.5697481 71.0609161,81.3601187 C72.3647979,83.1504894 74.6187874,83.9791246 76.7718458,83.4596305 C78.9249042,82.9401364 80.5530199,81.1748194 80.897,78.9868494 C81.3649483,75.9996924 79.3246346,73.198121 76.338,72.7268494 L76.338,72.7268494 Z" id="路径_73954" fill="url(#linearGradient-19)"></path>
                        <path d="M21.658,69.6078494 C18.6704481,69.1397657 15.8690159,71.1819475 15.4004956,74.169431 C14.9319753,77.1569145 16.9737477,79.9586451 19.9611626,80.427602 C22.9485776,80.8965588 25.7506066,78.8551958 26.22,75.8678494 C26.4457734,74.4326768 26.0918719,72.9666136 25.2362255,71.7924912 C24.3805791,70.6183688 23.0933537,69.8324691 21.658,69.6078494 Z" id="路径_73955" fill="url(#linearGradient-20)"></path>
                        <path d="M20.124,25.0438494 C22.3119638,25.3878686 24.4917177,24.3800103 25.6468389,22.4902407 C26.8019602,20.600471 26.7049656,18.2009508 25.4010839,16.4105801 C24.0972021,14.6202095 21.8432126,13.7915743 19.6901542,14.3110683 C17.5370958,14.8305624 15.9089801,16.5958795 15.565,18.7838494 C15.0958911,21.7712868 17.1367426,24.5735965 20.124,25.0438494 L20.124,25.0438494 Z" id="路径_73956" fill="url(#linearGradient-21)"></path>
                        <path d="M51.634,13.5448494 C54.3477658,14.0720929 57.1119196,12.9126815 58.6375333,10.6072503 C60.163147,8.30181907 60.1497749,5.30438645 58.6036524,3.01265882 C57.0575299,0.720931179 54.2831416,-0.413771671 51.574188,0.137663538 C48.8652344,0.689098748 46.7552015,2.8180755 46.228,5.53184944 C45.5087134,9.23727844 47.9287927,12.8244216 51.634,13.5448494 L51.634,13.5448494 Z" id="路径_73957" fill="url(#linearGradient-22)"></path>
                        <path d="M47.226,79.7418494 C43.5217939,79.0233037 39.9363202,81.4432482 39.2170707,85.1473177 C38.4978212,88.8513873 40.9170844,92.4373206 44.6210172,93.1572739 C48.32495,93.8772272 51.911343,91.4586454 52.632,87.7548494 C52.977971,85.9753517 52.6027367,84.1313036 51.5888719,82.6285107 C50.5750072,81.1257179 49.0055936,80.0873272 47.226,79.7418494 L47.226,79.7418494 Z" id="路径_73958" fill="url(#linearGradient-23)"></path>
                        <path d="M88.947,48.4578494 C86.2332342,47.930606 83.4690804,49.0900173 81.9434667,51.3954486 C80.417853,53.7008798 80.4312251,56.6983124 81.9773476,58.9900401 C83.5234701,61.2817677 86.2978584,62.4164705 89.006812,61.8650353 C91.7157656,61.3136001 93.8257985,59.1846234 94.353,56.4708494 C95.0711164,52.7656588 92.6515481,49.1792732 88.947,48.4578494 Z" id="路径_73959" fill="url(#linearGradient-24)"></path>
                        <circle id="椭圆_9488" fill="url(#linearGradient-25)" transform="translate(9.217777, 43.924734) rotate(-62.493000) translate(-9.217777, -43.924734) " cx="9.21777705" cy="43.9247336" r="6.834"></circle>
                        <circle id="椭圆_9489" fill="url(#linearGradient-26)" transform="translate(48.794456, 47.619228) rotate(-13.283000) translate(-48.794456, -47.619228) " cx="48.7944563" cy="47.619228" r="9.46"></circle>
                    </g>
                </g>
            </g>
        </g>
    </g>
</svg>